<?xml version="1.0" standalone="no"?>
<!DOCTYPE svg PUBLIC "-//W3C//DTD SVG 20010904//EN"
 "http://www.w3.org/TR/2001/REC-SVG-20010904/DTD/svg10.dtd">
<svg version="1.0" xmlns="http://www.w3.org/2000/svg"
 width="360.000000pt" height="360.000000pt" viewBox="0 0 360.000000 360.000000"
 preserveAspectRatio="xMidYMid meet">
<metadata>
Created by potrace 1.14, written by Peter Selinger 2001-2017
</metadata>
<g transform="translate(0.000000,360.000000) scale(0.100000,-0.100000)"
fill="#000000" stroke="none">
<path d="M1350 3480 c-85 -60 -181 -127 -213 -150 l-58 -42 -45 42 c-72 66
-123 85 -229 85 -78 0 -97 -4 -146 -28 -184 -90 -246 -324 -128 -486 16 -23
29 -43 29 -46 0 -2 -17 -13 -37 -24 -186 -96 -323 -329 -326 -550 0 -51 2 -71
18 -155 31 -160 182 -338 336 -398 70 -27 78 -43 75 -158 -2 -79 -18 -122 -58
-160 -26 -24 -75 -50 -94 -50 -7 0 -25 -5 -40 -10 l-27 -11 24 -26 c38 -41
101 -64 181 -66 65 -1 71 -3 80 -27 14 -35 12 -73 -7 -109 -8 -17 -14 -31 -13
-31 2 0 17 4 35 9 41 12 67 -13 57 -53 -5 -21 -3 -25 9 -21 8 4 59 -17 113
-44 54 -28 139 -67 188 -86 59 -23 107 -50 135 -76 l44 -39 -16 -38 c-25 -59
-31 -83 -33 -142 -1 -30 -4 -72 -8 -92 -27 -145 -27 -314 -1 -428 1 -3 5 -20
9 -38 l8 -32 669 0 669 0 6 28 c11 47 21 52 61 32 20 -9 45 -16 57 -15 11 1
29 3 38 4 29 2 77 61 93 115 34 111 10 326 -53 489 l-30 78 61 51 c218 181
323 424 325 753 1 82 6 134 17 165 24 67 43 201 40 282 l-3 72 48 54 c190 213
197 536 17 757 -71 88 -159 149 -282 196 -129 49 -320 31 -463 -44 l-45 -23
-66 32 c-55 26 -113 46 -136 45 -2 0 -19 4 -35 9 -17 5 -68 12 -113 15 -69 6
-96 13 -172 51 -49 24 -110 46 -135 50 -25 3 -49 9 -54 14 -4 5 -41 81 -82
170 -84 186 -98 210 -122 209 -9 0 -87 -49 -172 -109z m167 -17 c47 -106 101
-256 97 -267 -3 -8 1 -37 10 -64 17 -58 10 -64 -54 -51 -43 10 -366 6 -376 -3
-4 -4 6 -24 21 -43 15 -20 25 -39 22 -41 -3 -3 -20 -7 -39 -10 -18 -3 -44 -7
-57 -10 -19 -4 -22 -2 -17 12 27 72 28 147 1 211 -18 43 -12 52 54 90 91 52
225 136 270 169 25 18 48 34 51 34 3 0 11 -12 17 -27z"/>
</g>
</svg>
